<?xml version="1.0" encoding="utf-8"?>
<!-- Generator: Adobe Illustrator 25.3.1, SVG Export Plug-In . SVG Version: 6.00 Build 0)  -->
<svg version="1.1" id="Camada_1" xmlns="http://www.w3.org/2000/svg" xmlns:xlink="http://www.w3.org/1999/xlink" x="0px" y="0px"
	 viewBox="0 0 187.6 54.5" style="enable-background:new 0 0 187.6 54.5;" xml:space="preserve">
<style type="text/css">
	.st0{fill:#00547A;}
</style>
<g>
	<polygon class="st0" points="0,0.1 0,5.9 19.4,5.9 19.4,5.9 19.4,54.3 27.1,54.3 27.1,5.9 46.5,5.9 46.5,0.1 	"/>
	<polygon class="st0" points="141.2,0.1 141.2,5.9 160.6,5.9 160.6,5.9 160.6,54.3 168.3,54.3 168.3,5.9 187.6,5.9 187.6,0.1 	"/>
	<path class="st0" d="M118,19.4v-1c0-6.9,3.3-12.6,11.6-12.6l0,0h7.7V0h-7.7c-12.6,0-19.3,8.7-19.3,19.3v3.9v3.9v27.1h7.7V31v-1.9
		h17.4v-3.9H118L118,19.4L118,19.4z"/>
	<path class="st0" d="M52.3,0.1H60c0,0-0.1,30.1-0.1,31.8c-0.2,26-24.3,22.4-24.3,22.4v-3.9c14-1.6,16.4-8.7,16.7-15.9
		C52.3,32.6,52.3,0.1,52.3,0.1z"/>
	<path class="st0" d="M81.3,0.1h-1.9h-5.8h-7.7v5.8v42.5v5.8h7.7h5.8h1.9c12.8,0,23.2-7.7,23.2-27.1C104.5,7.8,94.1,0.1,81.3,0.1z
		 M79.3,48.5h-5.8V6h5.8c9.6,0,17.4,5.8,17.4,21.3C96.7,42.7,89,48.5,79.3,48.5z"/>
</g>
</svg>
