<?xml version="1.0" encoding="utf-8"?>
<!-- Generator: Adobe Illustrator 25.2.1, SVG Export Plug-In . SVG Version: 6.00 Build 0)  -->
<svg version="1.1" id="tsvg5998" xmlns="http://www.w3.org/2000/svg" xmlns:xlink="http://www.w3.org/1999/xlink" x="0px" y="0px"
	 viewBox="0 0 512 512" style="enable-background:new 0 0 512 512;" xml:space="preserve">
<style type="text/css">
	.st0{fill:#BBCD0E;}
</style>
<view  id="atendimento-balcao" preserveAspectRatio="xMidYMid meet" viewBox="0 0 141.5 100.2" zoomAndPan="magnify"></view>
<view  id="atendimento-chat-pje" preserveAspectRatio="xMidYMid meet" viewBox="142 101 108.7 101.8" zoomAndPan="magnify"></view>
<view  id="atendimento-magistrado" preserveAspectRatio="xMidYMid meet" viewBox="251 203 116 86.7" zoomAndPan="magnify"></view>
<view  id="atendimento-telefones-whatsapp" preserveAspectRatio="xMidYMid meet" viewBox="367 290 111.5 86.2" zoomAndPan="magnify">
	</view>
<view  id="atendimento-virtual" preserveAspectRatio="xMidYMid meet" viewBox="479 377 72 61" zoomAndPan="magnify"></view>
<view  id="atualizacao-monetaria" preserveAspectRatio="xMidYMid meet" viewBox="551 438 140 140" zoomAndPan="magnify"></view>
<view  id="calendario" preserveAspectRatio="xMidYMid meet" viewBox="691 578 36.447 36.447" zoomAndPan="magnify"></view>
<view  id="certidoes" preserveAspectRatio="xMidYMid meet" viewBox="728 615 140 140" zoomAndPan="magnify"></view>
<view  id="conciliacao" preserveAspectRatio="xMidYMid meet" viewBox="868 755 140 140" zoomAndPan="magnify"></view>
<view  id="enderecos-telefones" preserveAspectRatio="xMidYMid meet" viewBox="1008 895 140 140" zoomAndPan="magnify"></view>
<view  id="facebook" preserveAspectRatio="xMidYMid meet" viewBox="1148 1035 40.001 40.001" zoomAndPan="magnify"></view>
<view  id="flickr" preserveAspectRatio="xMidYMid meet" viewBox="1189 1076 40 40" zoomAndPan="magnify"></view>
<view  id="informacao" preserveAspectRatio="xMidYMid meet" viewBox="1229 1116 40 40" zoomAndPan="magnify"></view>
<view  id="instagram" preserveAspectRatio="xMidYMid meet" viewBox="1269 1156 40.001 40.001" zoomAndPan="magnify"></view>
<view  id="jurisprudencia" preserveAspectRatio="xMidYMid meet" viewBox="1310 1197 140 140" zoomAndPan="magnify"></view>
<view  id="logo-mobile" preserveAspectRatio="xMidYMid meet" viewBox="1450 1337 69.066 20" zoomAndPan="magnify"></view>
<view  id="lupa" preserveAspectRatio="xMidYMid meet" viewBox="1520 1357 30 30" zoomAndPan="magnify"></view>
<view  id="lupa-mobile" preserveAspectRatio="xMidYMid meet" viewBox="1550 1387 30 30" zoomAndPan="magnify"></view>
<view  id="ouvidoria" preserveAspectRatio="xMidYMid meet" viewBox="1580 1417 50.46 64.83" zoomAndPan="magnify"></view>
<view  id="pje" preserveAspectRatio="xMidYMid meet" viewBox="1631 1482 30 30" zoomAndPan="magnify"></view>
<view  id="podcast" preserveAspectRatio="xMidYMid meet" viewBox="1661 1512 32 32" zoomAndPan="magnify"></view>
<view  id="servicos" preserveAspectRatio="xMidYMid meet" viewBox="1693 1544 40 40" zoomAndPan="magnify"></view>
<view  id="transparencia" preserveAspectRatio="xMidYMid meet" viewBox="1733 1584 140 140" zoomAndPan="magnify"></view>
<view  id="twitter" preserveAspectRatio="xMidYMid meet" viewBox="1873 1724 40 40" zoomAndPan="magnify"></view>
<view  id="whatsapp" preserveAspectRatio="xMidYMid meet" viewBox="1913 1764 140 140" zoomAndPan="magnify"></view>
<view  id="youtube" preserveAspectRatio="xMidYMid meet" viewBox="2053 1904 40 40" zoomAndPan="magnify"></view>
<path class="st0" d="M256,0C114.6,0,0,114.6,0,256s114.6,256,256,256s256-114.6,256-256S397.4,0,256,0z M227.6,270.3h-46.6
	c-5,8.7-14.4,14.2-24.5,14.2c-15.7,0-28.4-12.7-28.4-28.4c0-15.7,12.7-28.4,28.4-28.4c10.1,0.1,19.4,5.5,24.5,14.2h46.6
	c7.9,0,14.2,6.4,14.2,14.2C241.8,264,235.4,270.3,227.6,270.3z M243.8,313c-0.1-0.2-0.2-0.4-0.3-0.5c-3.8-6.8-1.4-15.5,5.4-19.4
	c6.5-3.8,11.9-9.2,15.7-15.7c11.8-20.4,4.7-46.5-15.7-58.3c-6.2-4-8.4-12-5-18.6c3.6-7,12.2-9.6,19.2-6c10.8,6.2,19.8,15.2,26,26
	c19.6,34,8,77.5-26,97.1c-2.1,1.4-4.6,2.3-7.1,2.4C251,320.1,246.3,317.4,243.8,313z M257.1,352c-3.3-7.1-0.1-15.6,7-18.8
	c17.7-8.4,32-22.7,40.5-40.5c20.2-42.6,2.1-93.5-40.5-113.7c-7.1-3.4-10.1-11.9-6.8-19c3.4-7.1,11.9-10.1,19-6.8
	c23.7,11.2,42.9,30.4,54.1,54.1c26.9,56.8,2.7,124.6-54.1,151.5c-1.9,0.9-4,1.4-6.1,1.4C264.6,360.4,259.4,357.2,257.1,352z
	 M290.1,399.4c-1.8,0.8-3.7,1.3-5.7,1.3c-5.7,0-10.8-3.3-13.1-8.5c0,0,0-0.1,0-0.1c-3.1-7.2,0.2-15.6,7.4-18.7
	c29.6-12.9,53.3-36.5,66.2-66.2c28.2-64.8-1.4-140.2-66.2-168.5c-0.5-0.2-0.9-0.4-1.4-0.6c-7-3.5-9.9-12.1-6.3-19.1
	c3.5-7,12.1-9.9,19.1-6.3c36.1,15.8,64.9,44.6,80.7,80.7C405.4,272.7,369.3,364.9,290.1,399.4z"/>
</svg>
