<?xml version="1.0" encoding="utf-8"?>
<!-- Generator: Adobe Illustrator 25.2.1, SVG Export Plug-In . SVG Version: 6.00 Build 0)  -->
<svg version="1.1" id="Capa_1" xmlns="http://www.w3.org/2000/svg" xmlns:xlink="http://www.w3.org/1999/xlink" x="0px" y="0px"
	 viewBox="0 0 97.8 97.8" style="enable-background:new 0 0 97.8 97.8;" xml:space="preserve">
<style type="text/css">
	.st0{fill:#BBCD0E;}
</style>
<g>
	<path class="st0" d="M48.9,0C21.9,0,0,21.9,0,48.9s21.9,48.9,48.9,48.9s48.9-21.9,48.9-48.9S75.9,0,48.9,0z M28.3,66.4
		c-8.9,0-16.1-7.8-16.1-17.5s7.2-17.5,16.1-17.5s16.1,7.8,16.1,17.5S37.2,66.4,28.3,66.4z M69,65.9c-9.2,0-16.6-7.7-16.6-17.3
		c0-9.5,7.4-17.3,16.6-17.3c9.2,0,16.6,7.7,16.6,17.3C85.6,58.2,78.2,65.9,69,65.9z"/>
</g>
</svg>
